<svg id="Layer_1" data-name="Layer 1" xmlns="http://www.w3.org/2000/svg" viewBox="0 0 123.15 120.69"><defs><style>.cls-1{fill:none;stroke:#fff;stroke-miterlimit:10;stroke-width:3px;}.cls-2{fill:#fff;}</style></defs><title>Calender</title><rect id="_Rectangle_" data-name="&lt;Rectangle&gt;" class="cls-1" x="1.5" y="1.5" width="120.15" height="117.69"/><g id="_Group_" data-name="&lt;Group&gt;"><path id="_Compound_Path_" data-name="&lt;Compound Path&gt;" class="cls-2" d="M1280.2,212.26a7.05,7.05,0,0,0-6.9-5.63,1.41,1.41,0,0,0,0,2.82,4.23,4.23,0,1,1,0,8.45,1.41,1.41,0,0,0,0,2.82,7.06,7.06,0,0,0,6.9-5.63h18.45v9.86H1222.6v-9.86h23.94a1.41,1.41,0,1,0,0-2.82H1244a4.22,4.22,0,1,1,4,5.63,1.41,1.41,0,1,0,0,2.82,7,7,0,1,0-6.9-8.45h-21.27V286.9h81.69V212.26ZM1262,227.75h16.9v16.9H1262Zm16.9,36.62H1262v-16.9h16.9Zm-36.62-16.9h16.9v16.9h-16.9Zm0-19.72h16.9v16.9h-16.9Zm-19.72,1.41v-1.41h16.9v16.9h-16.9Zm0,18.31h16.9v16.9h-16.9Zm0,36.62v-16.9h16.9v16.9Zm19.72,0v-16.9h16.9v16.9Zm19.72,0v-16.9h16.9v16.9Zm36.62,0h-16.9v-16.9h16.9Zm0-19.72h-16.9v-16.9h16.9Zm-16.9-19.72v-16.9h16.9v16.9Z" transform="translate(-1197.75 -184.27)"/><path id="_Path_" data-name="&lt;Path&gt;" class="cls-2" d="M1256.4,209.44a4.23,4.23,0,0,1,0,8.45,1.41,1.41,0,1,0,0,2.82,7,7,0,0,0,0-14.08,1.41,1.41,0,1,0,0,2.82Z" transform="translate(-1197.75 -184.27)"/><path id="_Path_2" data-name="&lt;Path&gt;" class="cls-2" d="M1264.85,209.44a4.23,4.23,0,1,1,0,8.45,1.41,1.41,0,0,0,0,2.82,7,7,0,1,0,0-14.08,1.41,1.41,0,0,0,0,2.82Z" transform="translate(-1197.75 -184.27)"/><path id="_Path_3" data-name="&lt;Path&gt;" class="cls-2" d="M1263.86,262.55a1.41,1.41,0,0,0,2,0l4.64-4.64,4.64,4.64a1.41,1.41,0,0,0,2-2l-4.64-4.64,4.64-4.64a1.41,1.41,0,0,0-2-2l-4.64,4.64-4.64-4.64a1.41,1.41,0,0,0-2,2l4.64,4.64-4.64,4.64A1.41,1.41,0,0,0,1263.86,262.55Z" transform="translate(-1197.75 -184.27)"/></g></svg>