<svg id="Layer_1" data-name="Layer 1" xmlns="http://www.w3.org/2000/svg" viewBox="0 0 125.6 120.69"><defs><style>.cls-1,.cls-3{fill:none;stroke:#fff;stroke-miterlimit:10;}.cls-1{stroke-width:3px;}.cls-2{fill:#fff;}</style></defs><title>Directory</title><rect id="_Rectangle_" data-name="&lt;Rectangle&gt;" class="cls-1" x="1.5" y="1.5" width="122.6" height="117.69"/><polygon id="_Path_" data-name="&lt;Path&gt;" class="cls-2" points="80.52 81.72 44.13 81.72 47.32 87.05 83.18 87.05 83.18 45.16 80.52 39.48 80.52 81.72"/><path id="_Compound_Path_" data-name="&lt;Compound Path&gt;" class="cls-2" d="M1239.07,279.31h48.19V227.39l-.27-.62-8-15.27-.8-1.42h-46.86v56.72l.36.62,6.57,10.65.8,1.24m1.51-2.66L1234,266V212.74h42.6l8,15.27v48.64Z" transform="translate(-1196.1 -184.27)"/><g id="_Group_" data-name="&lt;Group&gt;"><path id="_Path_2" data-name="&lt;Path&gt;" class="cls-2" d="M1257.22,225.34a3,3,0,1,0,3,3,3,3,0,0,0-3-3Z" transform="translate(-1196.1 -184.27)"/><path id="_Path_3" data-name="&lt;Path&gt;" class="cls-2" d="M1257.22,232.1a5.29,5.29,0,0,0-5.29,5.29h10.58A5.29,5.29,0,0,0,1257.22,232.1Z" transform="translate(-1196.1 -184.27)"/></g><g id="_Group_2" data-name="&lt;Group&gt;"><path id="_Path_4" data-name="&lt;Path&gt;" class="cls-2" d="M1249.06,243.26a2.49,2.49,0,1,0,2.49,2.49,2.49,2.49,0,0,0-2.49-2.49Z" transform="translate(-1196.1 -184.27)"/><path id="_Path_5" data-name="&lt;Path&gt;" class="cls-2" d="M1249.06,248.83a4.37,4.37,0,0,0-4.36,4.36h8.72A4.37,4.37,0,0,0,1249.06,248.83Z" transform="translate(-1196.1 -184.27)"/></g><g id="_Group_3" data-name="&lt;Group&gt;"><path id="_Path_6" data-name="&lt;Path&gt;" class="cls-2" d="M1265.31,243.26a2.49,2.49,0,1,0,2.49,2.49,2.49,2.49,0,0,0-2.49-2.49Z" transform="translate(-1196.1 -184.27)"/><path id="_Path_7" data-name="&lt;Path&gt;" class="cls-2" d="M1265.31,248.83a4.37,4.37,0,0,0-4.36,4.36h8.72A4.37,4.37,0,0,0,1265.31,248.83Z" transform="translate(-1196.1 -184.27)"/></g><line id="_Path_8" data-name="&lt;Path&gt;" class="cls-3" x1="57.99" y1="54.53" x2="53.88" y2="58"/><line id="_Path_9" data-name="&lt;Path&gt;" class="cls-3" x1="64.37" y1="54.53" x2="68.48" y2="58"/><line id="_Path_10" data-name="&lt;Path&gt;" class="cls-3" x1="58.6" y1="67.2" x2="63.21" y2="67.2"/></svg>