<svg id="Layer_1" data-name="Layer 1" xmlns="http://www.w3.org/2000/svg" viewBox="0 0 123.15 120.69"><defs><style>.cls-1{fill:none;stroke:#fff;stroke-miterlimit:10;stroke-width:3px;}.cls-2{fill:#fff;}</style></defs><title>Inclusive Bangladesh icon</title><rect id="_Rectangle_" data-name="&lt;Rectangle&gt;" class="cls-1" x="1.5" y="1.5" width="120.15" height="117.69"/><path class="cls-2" d="M1243.71,284.11a39,39,0,0,0,14,2.56,40.48,40.48,0,0,0,33.64-18l-3.77-2.56A35.53,35.53,0,0,1,1222.45,244l8.61,9.15,3.23-3.1-11.17-11.71a2.31,2.31,0,0,0-3.23-.13l-11.44,11,3.1,3.23,6.32-6.06A40.38,40.38,0,0,0,1243.71,284.11Z" transform="translate(-1197.5 -184.27)"/><path class="cls-2" d="M1285.83,241.45l-3.36,3.1,11,11.84a2.23,2.23,0,0,0,1.61.67h.13a2.8,2.8,0,0,0,1.61-.67l11.84-11-3.36-3.23-7.54,7a40.07,40.07,0,0,0-73.48-24.49l3.77,2.56a35.87,35.87,0,0,1,42.26-13.73,35.27,35.27,0,0,1,22.88,35.93Z" transform="translate(-1197.5 -184.27)"/><path class="cls-2" d="M1277.35,266.56c-.24-1.29-.2-4.48-.56-5.53s.06-4.24-.65-5.38-1.79-3.61-1.38-4.48a4.45,4.45,0,0,0-.43-3.12c-.31-.53.16-1.09-.76-1.27s-1.32.42-2,.24.36,1.72-.2,2.23-2,1.45-1.2,2.45-.43,1.87-1.14,2-1.18-2-1.67-2.32-1,1.52-1.16,0-1.18-2.48-1.3-3.14.29-.67.11-1.36-.82-2.52.83-2.48,1.16-.67,3-1,2.25-2.18,3.55-2.34,1.11-2,1.41-3.1.2-1.43,1.05-1.21,1.36-1-.22-1.78a6.91,6.91,0,0,0-5.29-.71c-2,.62-2.92-.36-4.4-.45s-3,.69-4.8.38-4.66-.83-5.09-1.18-1.09.07-.85-1.09a8.45,8.45,0,0,0,.07-3.28c-.2-.78.25-1.59-.34-2.56s-1.58-1.7-1.65-.43-.11,1.49-.71,1.25a11.34,11.34,0,0,1-2.47-1.27c-.53-.45-.33-1.6-.85-2.15s-1.3-.82-1.29-.22.47,1-.07,1.07-.8.29-1.25-.33a11.69,11.69,0,0,0-2.08-2c-.71-.53-.89-.74-1.09-.47a.83.83,0,0,0,.6,1.29c.91.25.51.69.05.82s-.82,1.23-1.61,1.4-.42,1-.91,1.7-.31,2,.53,1.83,1.52.58,2,1.56,1.79,1.52,2.16,1.32.78-.22.91.45.22.85.58.89.92,0,.91.2A2.91,2.91,0,0,1,1247,234c-.24.22-.65,0-1.34-.05s-.52-.39-1-.35-.69.26-1.24.1-.45.18-.47.91a2.46,2.46,0,0,1-.8,1.8c-.43.25-.76-.09-1.12-.45s-.85.18-.83.73.15.65-.24,1.12a1.37,1.37,0,0,0,.16,2c.78.8,1.78.62,2.25,1.07a1.92,1.92,0,0,0,1.72.81c.5,0,1,.39,1.05.76s-.3.86-.21,1.14a1.67,1.67,0,0,1,.21,1.1c-.1.59-.34.84-.62.88s-.53.34-.63.66c-.17.55-.46,1.4.23,1.92s.51.81,1.06.88c.37,0,.63.42.25.84-.62.67-.92,1.41.08,1.52s1.66,0,1.55.35-1.48,1-.76,2.2c.44.73.68.91.39,1.73s.23,1,.06,1.66a3.49,3.49,0,0,0,.71,2.69c.48.89-.11,1.09.16,2.07s-.45,2.47.56,2.62.5.78.9.8.5-1.07.93-1.15.32.35.66.38.41-.4.81-.34.49.52.83.38.37-1,.94-1c.8,0,1.34-.13,1.06-1.18s.1-2.24.27-2,.19,1.74,1.09,1.84-.51,1.5.87,1.62,1.52-1.76,2.05-2.37.68-.48,1.12-1.17a4.25,4.25,0,0,0,0-3.92,2.93,2.93,0,0,1,.11-3.08c.64-1,.14-2.06.76-2.08.35,0,.06,1,.73,2.44.36.76,1.81,4.1,2.68,2.68.77-1.25,1-.72,1.38-.58s.82-.32,1.63-.54.89-.4,1.85,1.34c1.08,2,1.78,4,2.32,5.11s-.25,1.1.33,3.51,1.05,2.15,1.09,3.93,1.2,2.54,1.85,3.37.11-2.14-.15-2.61-.6-1.94.05-2.39,1.09.11,1.56.11.63,1.11,1.29,1S1277.58,267.85,1277.35,266.56Zm-9.7-9.57c-.07-.41-.27-.06-.41.29a1.79,1.79,0,0,0,.27,1.84c.51.46,1.09.12.94-.31S1267.72,257.4,1267.65,257Zm-3.19.87c-.26-.19-.52.05-.38,1,.17,1.07-.24,2.92.18,2.79a1.87,1.87,0,0,0,1-1.94A5,5,0,0,0,1264.46,257.86Zm-2.5-.78a3.87,3.87,0,0,1-.71-1.52.47.47,0,0,0-.83,0c-.33.53.27,1.62.51,2.17a3,3,0,0,1,.13,2c-.24,1-.51,1.54-.63,2.1a.47.47,0,0,0,.83.4,17.23,17.23,0,0,1,1.36-1.67c.42-.45,0-1.63,0-2.19A1.59,1.59,0,0,0,1262,257.08Z" transform="translate(-1197.5 -184.27)"/></svg>