<svg id="Layer_1" data-name="Layer 1" xmlns="http://www.w3.org/2000/svg" viewBox="0 0 122.33 120.69"><defs><style>.cls-1,.cls-3{fill:none;stroke:#fff;stroke-width:3px;}.cls-1{stroke-miterlimit:10;}.cls-2{fill:#fff;}.cls-3{stroke-linecap:round;stroke-linejoin:round;}</style></defs><title>Media blog</title><g id="_Group_" data-name="&lt;Group&gt;"><rect id="_Rectangle_" data-name="&lt;Rectangle&gt;" class="cls-1" x="1.5" y="1.5" width="119.33" height="117.69"/><g id="_Group_2" data-name="&lt;Group&gt;"><rect id="_Path_" data-name="&lt;Path&gt;" class="cls-2" x="72.49" y="34.14" width="18.79" height="2.4"/><rect id="_Path_2" data-name="&lt;Path&gt;" class="cls-2" x="72.49" y="27.6" width="18.79" height="2.4"/><path id="_Path_3" data-name="&lt;Path&gt;" class="cls-2" d="M1266,244.29v2.4a9.1,9.1,0,0,0,9.07-9.07h-2.4A6.61,6.61,0,0,1,1266,244.29Z" transform="translate(-1198.15 -184.27)"/><rect id="_Path_4" data-name="&lt;Path&gt;" class="cls-2" x="60.24" y="40.75" width="31.04" height="2.4"/><path id="_Compound_Path_" data-name="&lt;Compound Path&gt;" class="cls-2" d="M1291.23,205.27h-34.58a5.89,5.89,0,0,0-5.88,5.88V228.2a5.89,5.89,0,0,0,5.88,5.88h34.58a5.89,5.89,0,0,0,5.88-5.88V211.15A5.89,5.89,0,0,0,1291.23,205.27Zm3.48,22.88a3.48,3.48,0,0,1-3.48,3.48h-34.58a3.48,3.48,0,0,1-3.48-3.48v-17a3.48,3.48,0,0,1,3.48-3.48h34.58a3.48,3.48,0,0,1,3.48,3.48Z" transform="translate(-1198.15 -184.27)"/><g id="_Group_3" data-name="&lt;Group&gt;"><ellipse id="_Path_5" data-name="&lt;Path&gt;" class="cls-3" cx="47.96" cy="75.75" rx="19.95" ry="21.04"/><polygon id="_Path_6" data-name="&lt;Path&gt;" class="cls-3" points="56.64 75.75 42.05 66.59 42.05 84.63 56.64 75.75"/></g></g></g></svg>