<svg id="Layer_1" data-name="Layer 1" xmlns="http://www.w3.org/2000/svg" viewBox="0 0 122.33 120.69"><defs><style>.cls-1{fill:none;stroke:#fff;stroke-miterlimit:10;stroke-width:3px;}</style></defs><title>Skill development</title><g id="_Group_" data-name="&lt;Group&gt;"><rect id="_Rectangle_" data-name="&lt;Rectangle&gt;" class="cls-1" x="1.5" y="1.5" width="119.33" height="117.69"/><path id="_Compound_Path_" data-name="&lt;Compound Path&gt;" class="cls-1" d="M1215.87,252.59l4.57-10.27a13.45,13.45,0,0,0,1.16-5.48A27.71,27.71,0,0,1,1249,209.14l-.66.66a8.72,8.72,0,0,0-1.84,9.56,8.72,8.72,0,0,0-5.45,8.05v2.76a8.72,8.72,0,0,0,5.46,8.05,8.72,8.72,0,0,0,1.84,9.55l2,1.95a8.62,8.62,0,0,0,6.13,2.54,8.72,8.72,0,0,0,3.41-.7,8.72,8.72,0,0,0,8.05,5.45h1.7l4,13.89a2.76,2.76,0,0,1-1.89,3.42h0L1243,282.5a2.76,2.76,0,0,1-3.42-1.89h0l-2.23-7.81h-10.71a5,5,0,0,1-5-5h0V257.27l-4.3-1.42a2.4,2.4,0,0,1-1.43-3.26Zm86,5-1.89,1.29a10.93,10.93,0,0,1-.44,4.32l1.63,1.66a2,2,0,0,1,.19,2.52l-1.26,1.78a2,2,0,0,1-2.44.62l-2.09-1a10.8,10.8,0,0,1-4,1.78l-.63,2.24a2,2,0,0,1-2.08,1.42l-2.13-.21a2,2,0,0,1-1.78-1.78l-.17-2.32a10.8,10.8,0,0,1-3.56-2.53L1279,268a2,2,0,0,1-2.28-1.09l-.89-2a2,2,0,0,1,.71-2.44l1.92-1.31a10.9,10.9,0,0,1,.44-4.32l-1.63-1.66a2,2,0,0,1-.19-2.52l1.26-1.78a2,2,0,0,1,2.44-.62l2.1,1a10.79,10.79,0,0,1,4-1.78l.63-2.24a2,2,0,0,1,2.08-1.42l2.15.21a2,2,0,0,1,1.78,1.78l.17,2.32a10.79,10.79,0,0,1,3.56,2.53l2.26-.58a2,2,0,0,1,2.22,1.12l.89,2A2,2,0,0,1,1301.88,257.63Zm-8.61,2.83a4.09,4.09,0,1,0-4.48,3.66h0a4.09,4.09,0,0,0,4.47-3.67h0Zm-40.74-20.32,2.23-3a16.65,16.65,0,0,1-1.69-4.06l-3.64-.5a2.46,2.46,0,0,1-2.12-2.44V227.4a2.46,2.46,0,0,1,2.12-2.44l3.72-.5a16.61,16.61,0,0,1,1.62-4.06l-2.28-3a2.46,2.46,0,0,1,.21-3.23l1.95-1.95a2.46,2.46,0,0,1,3.23-.21l3,2.28a16.61,16.61,0,0,1,4.06-1.69l.51-3.72a2.46,2.46,0,0,1,2.44-2.12h2.76a2.46,2.46,0,0,1,2.44,2.12l.5,3.72a16.6,16.6,0,0,1,4.06,1.69l3-2.28a2.46,2.46,0,0,1,3.23.21l1.95,1.95a2.46,2.46,0,0,1,.21,3.23l-2.28,3a16.63,16.63,0,0,1,1.69,4.06l3.71.5a2.46,2.46,0,0,1,2.12,2.44v2.76a2.46,2.46,0,0,1-2.12,2.44l-3.72.5a16.61,16.61,0,0,1-1.69,4.06l2.28,3a2.46,2.46,0,0,1-.21,3.23l-1.95,1.95a2.46,2.46,0,0,1-3.23.21l-3-2.28a16.62,16.62,0,0,1-4.06,1.69l-.5,3.71a2.46,2.46,0,0,1-2.44,2.12h-2.76a2.46,2.46,0,0,1-2.42-2.12l-.5-3.72a16.63,16.63,0,0,1-4.06-1.69l-3,2.28a2.46,2.46,0,0,1-3.23-.21l-1.92-1.95A2.46,2.46,0,0,1,1252.54,240.13Zm11.12-11.35a5.63,5.63,0,1,0,11.25,0h0a5.63,5.63,0,0,0-11.25,0Z" transform="translate(-1197.89 -184.27)"/></g></svg>