<svg id="Layer_1" data-name="Layer 1" xmlns="http://www.w3.org/2000/svg" viewBox="0 0 123.96 120.69"><defs><style>.cls-1{fill:none;stroke:#fff;stroke-miterlimit:10;stroke-width:3px;}.cls-2{fill:#fff;}</style></defs><title>Opportunity</title><g id="_Group_" data-name="&lt;Group&gt;"><rect id="_Rectangle_" data-name="&lt;Rectangle&gt;" class="cls-1" x="1.5" y="1.5" width="120.96" height="117.69"/><g id="_Group_2" data-name="&lt;Group&gt;"><path id="_Compound_Path_" data-name="&lt;Compound Path&gt;" class="cls-2" d="M1303.49,250.34a21.1,21.1,0,0,0-2.31-5.76c-1.84-3.46-7.54-13.78-8.24-15a30.35,30.35,0,0,0-3.31-4.25,15.2,15.2,0,0,0-10.18-3.9,14.85,14.85,0,0,0-2.9.29,7.16,7.16,0,0,0-14.07,2.51l.66,5.33a7.63,7.63,0,0,0-9.84,0l.66-5.34a7.16,7.16,0,0,0-14.07-2.5,14.85,14.85,0,0,0-2.9-.29,15.24,15.24,0,0,0-10.25,4,30.72,30.72,0,0,0-3.24,4.18c-.94,1.7-6.45,11.68-8.24,15a21.22,21.22,0,0,0-2.32,5.77,18.84,18.84,0,0,0-.34,6.08,19.06,19.06,0,0,0,11.31,15.3,18.64,18.64,0,0,0,7.32,1.49,18.66,18.66,0,0,0,18.18-13.89,9.89,9.89,0,0,0,17.6,0,18.83,18.83,0,0,0,25.5,12.41,19.06,19.06,0,0,0,11.31-15.3A18.83,18.83,0,0,0,1303.49,250.34Zm-45.27-20.63a5.68,5.68,0,0,1,5.45,4.13c.56,4.51,1.22,9.82,1.75,14.17a9.86,9.86,0,0,0-14.42,0c.53-4.35,1.19-9.66,1.75-14.17A5.68,5.68,0,0,1,1258.23,229.71Zm-10.06,25.11-.1,1a16.81,16.81,0,1,1-33.17-5,19.31,19.31,0,0,1,2.12-5.25c1.79-3.35,7.29-13.32,8.23-15a29.91,29.91,0,0,1,2.9-3.74,13.22,13.22,0,0,1,8.85-3.39,13.36,13.36,0,0,1,9.67,4.23,1,1,0,1,0,1.45-1.36,15.51,15.51,0,0,0-6.3-4.06,5.17,5.17,0,0,1,9.1-2.06,5.13,5.13,0,0,1,1.08,3.8c0,.11-.53,4.26-1.19,9.56a7.64,7.64,0,0,0-.24,1.89h0c-.91,7.31-2,16-2.39,19.44Zm10.06,7.88a7.92,7.92,0,1,1,7.92-7.92A7.93,7.93,0,0,1,1258.23,262.7Zm43.63-6.49a16.81,16.81,0,0,1-33.4.2l-.07-.61c-.25-2.21-1.49-12.21-2.51-20.43h0a7.67,7.67,0,0,0-.24-1.89c-.66-5.29-1.17-9.44-1.19-9.55a5.17,5.17,0,0,1,4.53-5.74,5.19,5.19,0,0,1,5.64,4,15.51,15.51,0,0,0-6.3,4.06,1,1,0,1,0,1.45,1.36,13.36,13.36,0,0,1,9.67-4.23,13.19,13.19,0,0,1,8.78,3.32,28.23,28.23,0,0,1,3,3.81c.7,1.26,6.39,11.57,8.24,15a19.23,19.23,0,0,1,2.11,5.23A16.86,16.86,0,0,1,1301.86,256.21Z" transform="translate(-1197.49 -184.27)"/><circle id="_Path_" data-name="&lt;Path&gt;" class="cls-1" cx="34.3" cy="70.8" r="12.58"/><circle id="_Path_2" data-name="&lt;Path&gt;" class="cls-1" cx="87.27" cy="70.8" r="12.58"/></g></g></svg>